#!OML:ASF H:\Dans Jumps\Project 1\Capture day 1\Session 1\subject.ASF
:FULLY-SPECIFIED
:DEGREES
156
root 0.398333 16.5033 -15.0362 10.3782 -1.34902 -1.29543
lowerback 12.7955 0.4838 -0.25702
upperback 11.1332 0.570275 1.41333
thorax 4.55973 0.205902 1.57597
lowerneck -14.9382 0.451867 -1.5479
upperneck 23.4883 1.11517 -0.344321
head 9.92267 0.335045 0.283185
rclavicle -4.96962e-015 2.38542e-015
rhumerus -80.5593 -10.6472 -50.8252
rradius 24.244
rwrist 30.4587
rhand -20.7875 -24.1562
rfingers 7.12502
rthumb 5.57952 -54.0628
lclavicle -4.96962e-015 2.38542e-015
lhumerus -77.035 1.69593 75.7913
lradius 18.2718
lwrist 20.3838
lhand -27.3041 -6.06021
lfingers 7.12502
lthumb -0.713806 23.9183
rfemur -38.5376 -2.61834 19.5998
rtibia 50.2971
rfoot -20.5733 -6.81485
rtoes 0.722688
lfemur -37.9791 8.38614 -20.6395
ltibia 49.0693
lfoot -19.0636 8.39603
ltoes -1.00398
157
root 0.397324 16.4751 -15.0506 10.3397 -1.27013 -1.26897
lowerback 12.9522 0.49512 -0.270198
upperback 11.2782 0.583085 1.42845
thorax 4.63373 0.20983 1.59854
lowerneck -15.0218 0.425538 -1.59326
upperneck 23.2785 1.09141 -0.350166
head 9.86375 0.321386 0.285475
rclavicle -2.5842e-015 -2.78299e-015
rhumerus -81.6708 -10.3049 -50.2076
rradius 23.8583
rwrist 30.8413
rhand -20.6389 -24.2323
rfingers 7.12502
rthumb 5.72303 -54.135
lclavicle -2.5842e-015 -2.78299e-015
lhumerus -78.0882 1.67233 75.0941
lradius 17.9109
lwrist 20.0246
lhand -27.0468 -5.74189
lfingers 7.12502
lthumb -0.465258 24.2373
rfemur -38.8073 -2.62763 19.5765
rtibia 50.7921
rfoot -20.777 -6.97216
rtoes 0.659851
lfemur -38.2549 8.27173 -20.6573
ltibia 49.5545
lfoot -19.2875 8.74381
ltoes -1.50871
158
root 0.39625 16.4463 -15.0652 10.3023 -1.19343 -1.2497
lowerback 13.1048 0.506001 -0.278001
upperback 11.4269 0.595588 1.44717
thorax 4.71442 0.213695 1.622
lowerneck -15.1313 0.402796 -1.63
upperneck 23.0838 1.07435 -0.368492
head 9.81542 0.309943 0.282952
rclavicle -1.98785e-015 -8.94531e-015
rhumerus -82.7409 -9.93759 -49.667
rradius 23.4873
rwrist 31.1672
rhand -20.5099 -24.3072
rfingers 7.12502
rthumb 5.84751 -54.2065
lclavicle -1.98785e-015 -8.94531e-015
lhumerus -79.1098 1.62054 74.4224
lradius 17.5586
lwrist 19.6594
lhand -26.8371 -5.45218
lfingers 7.12502
lthumb -0.262801 24.5274
rfemur -39.085 -2.63496 19.5633
rtibia 51.2952
rfoot -20.9854 -7.14293
rtoes 0.549609
lfemur -38.5376 8.15897 -20.6675
ltibia 50.0525
lfoot -19.5497 9.13623
ltoes -2.15632
159
root 0.395229 16.4164 -15.0802 10.2766 -1.11933 -1.23435
lowerback 13.2501 0.515733 -0.280087
upperback 11.5724 0.607037 1.46637
thorax 4.7959 0.217359 1.6429
lowerneck -15.2564 0.383027 -1.65994
upperneck 22.8967 1.0625 -0.396391
head 9.7729 0.300309 0.276697
rclavicle -6.75868e-015 -8.74653e-015
rhumerus -83.776 -9.55793 -49.1686
rradius 23.122
rwrist 31.5186
rhand -20.3933 -24.3524
rfingers 7.12502
rthumb 5.96009 -54.2485
lclavicle -6.75868e-015 -8.74653e-015
lhumerus -80.1018 1.53919 73.7841
lradius 17.213
lwrist 19.2902
lhand -26.6474 -5.14368
lfingers 7.12502
lthumb -0.0795388 24.836
rfemur -39.3851 -2.64218 19.5563
rtibia 51.8076
rfoot -21.1997 -7.33406
rtoes 0.371555
lfemur -38.8397 8.04438 -20.676
ltibia 50.5641
lfoot -19.8491 9.56443
ltoes -2.92443
